{
    "accessors" : [
        {
            "bufferView" : 0,
            "componentType" : 5121,
            "count" : 192,
            "max" : [
                111
            ],
            "min" : [
                0
            ],
            "type" : "SCALAR"
        },
        {
            "bufferView" : 1,
            "componentType" : 5126,
            "count" : 112,
            "max" : [
                1.8131327629089355,
                1.5851033197122888e-07,
                1.8131515979766846
            ],
            "min" : [
                -1.8131327629089355,
                -0.12000016123056412,
                -1.8131515979766846
            ],
            "type" : "VEC3"
        },
        {
            "bufferView" : 2,
            "componentType" : 5126,
            "count" : 112,
            "max" : [
                0.9985114336013794,
                1.0,
                0.9985107779502869
            ],
            "min" : [
                -0.9985114336013794,
                -1.0,
                -0.9985107779502869
            ],
            "type" : "VEC3"
        },
        {
            "bufferView" : 3,
            "componentType" : 5126,
            "count" : 112,
            "max" : [
                1.0,
                1.0
            ],
            "min" : [
                0.0,
                -2.384185791015625e-07
            ],
            "type" : "VEC2"
        },
        {
            "bufferView" : 4,
            "componentType" : 5123,
            "count" : 112,
            "max" : [
                0,
                1,
                2,
                2
            ],
            "min" : [
                0,
                0,
                1,
                0
            ],
            "type" : "VEC4"
        },
        {
            "bufferView" : 5,
            "componentType" : 5126,
            "count" : 112,
            "max" : [
                0.05304449796676636,
                1.0,
                1.0,
                1.0
            ],
            "min" : [
                0.0,
                0.0,
                0.0,
                0.0
            ],
            "type" : "VEC4"
        },
        {
            "bufferView" : 6,
            "componentType" : 5126,
            "count" : 3,
            "max" : [
                1.2254023551940918,
                -1.2254023551940918,
                0.0,
                0.0,
                -5.356403320888603e-08,
                -5.356403320888603e-08,
                1.732980489730835,
                0.0,
                -1.2254023551940918,
                -1.2254023551940918,
                -7.575098948109371e-08,
                0.0,
                -0.017544154077768326,
                0.043183982372283936,
                0.09915395826101303,
                1.0
            ],
            "min" : [
                1.2254023551940918,
                -1.2254023551940918,
                0.0,
                0.0,
                -5.356403320888603e-08,
                -5.356403320888603e-08,
                1.732980489730835,
                0.0,
                -1.2254023551940918,
                -1.2254023551940918,
                -7.575098948109371e-08,
                0.0,
                -0.02742435410618782,
                -0.04513472318649292,
                0.09915395826101303,
                1.0
            ],
            "type" : "MAT4"
        },
        {
            "bufferView" : 7,
            "componentType" : 5126,
            "count" : 20,
            "max" : [
                0.7916666666666667
            ],
            "min" : [
                0.0
            ],
            "type" : "SCALAR"
        },
        {
            "bufferView" : 8,
            "componentType" : 5126,
            "count" : 20,
            "max" : [
                0.0,
                1.0,
                0.0,
                1.0
            ],
            "min" : [
                0.0,
                -0.9939132332801819,
                0.0,
                -4.371138828673793e-08
            ],
            "type" : "VEC4"
        },
        {
            "bufferView" : 9,
            "componentType" : 5126,
            "count" : 29,
            "max" : [
                1.1666666666666665
            ],
            "min" : [
                0.0
            ],
            "type" : "SCALAR"
        },
        {
            "bufferView" : 10,
            "componentType" : 5126,
            "count" : 29,
            "max" : [
                0.0,
                0.0,
                0.0,
                1.0
            ],
            "min" : [
                0.0,
                0.0,
                0.0,
                1.0
            ],
            "type" : "VEC4"
        },
        {
            "bufferView" : 11,
            "componentType" : 5126,
            "count" : 29,
            "max" : [
                1.1666666666666665
            ],
            "min" : [
                0.0
            ],
            "type" : "SCALAR"
        },
        {
            "bufferView" : 12,
            "componentType" : 5126,
            "count" : 29,
            "max" : [
                0.5564654469490051,
                0.0,
                0.0,
                1.0
            ],
            "min" : [
                0.0,
                0.0,
                0.0,
                0.8308708667755127
            ],
            "type" : "VEC4"
        },
        {
            "bufferView" : 13,
            "componentType" : 5126,
            "count" : 29,
            "max" : [
                1.1666666666666665
            ],
            "min" : [
                0.0
            ],
            "type" : "SCALAR"
        },
        {
            "bufferView" : 14,
            "componentType" : 5126,
            "count" : 29,
            "max" : [
                0.5128332376480103,
                0.0,
                0.0,
                1.0
            ],
            "min" : [
                0.0,
                0.0,
                0.0,
                0.8584883809089661
            ],
            "type" : "VEC4"
        },
        {
            "bufferView" : 15,
            "componentType" : 5126,
            "count" : 9,
            "max" : [
                0.3333333333333333
            ],
            "min" : [
                0.0
            ],
            "type" : "SCALAR"
        },
        {
            "bufferView" : 16,
            "componentType" : 5126,
            "count" : 9,
            "max" : [
                -0.009880200028419495,
                0.015207469463348389,
                0.0
            ],
            "min" : [
                -0.009880200028419495,
                0.015207469463348389,
                0.0
            ],
            "type" : "VEC3"
        },
        {
            "bufferView" : 17,
            "componentType" : 5126,
            "count" : 20,
            "max" : [
                0.7916666666666667
            ],
            "min" : [
                0.0
            ],
            "type" : "SCALAR"
        },
        {
            "bufferView" : 18,
            "componentType" : 5126,
            "count" : 20,
            "max" : [
                1.0,
                0.0,
                0.0,
                0.9999918341636658
            ],
            "min" : [
                -0.9941451549530029,
                0.0,
                0.0,
                5.960464477539063e-08
            ],
            "type" : "VEC4"
        }
    ],
    "animations" : [
        {
            "channels" : [
                {
                    "sampler" : 0,
                    "target" : {
                        "node" : 5,
                        "path" : "translation"
                    }
                },
                {
                    "sampler" : 1,
                    "target" : {
                        "node" : 5,
                        "path" : "rotation"
                    }
                }
            ],
            "name" : "\u5f85\u6a5f",
            "samplers" : [
                {
                    "input" : 15,
                    "interpolation" : "LINEAR",
                    "output" : 16
                },
                {
                    "input" : 17,
                    "interpolation" : "LINEAR",
                    "output" : 18
                }
            ]
        },
        {
            "channels" : [
                {
                    "sampler" : 0,
                    "target" : {
                        "node" : 3,
                        "path" : "rotation"
                    }
                },
                {
                    "sampler" : 1,
                    "target" : {
                        "node" : 4,
                        "path" : "rotation"
                    }
                },
                {
                    "sampler" : 2,
                    "target" : {
                        "node" : 5,
                        "path" : "rotation"
                    }
                }
            ],
            "name" : "\u793c",
            "samplers" : [
                {
                    "input" : 9,
                    "interpolation" : "LINEAR",
                    "output" : 10
                },
                {
                    "input" : 11,
                    "interpolation" : "LINEAR",
                    "output" : 12
                },
                {
                    "input" : 13,
                    "interpolation" : "LINEAR",
                    "output" : 14
                }
            ]
        },
        {
            "channels" : [
                {
                    "sampler" : 0,
                    "target" : {
                        "node" : 5,
                        "path" : "rotation"
                    }
                }
            ],
            "name" : "sy\u30d9\u30eb",
            "samplers" : [
                {
                    "input" : 7,
                    "interpolation" : "LINEAR",
                    "output" : 8
                }
            ]
        }
    ],
    "asset" : {
        "generator" : "Khronos Blender glTF 2.0 exporter",
        "version" : "2.0"
    },
    "bufferViews" : [
        {
            "buffer" : 0,
            "byteLength" : 192,
            "byteOffset" : 0,
            "target" : 34963
        },
        {
            "buffer" : 0,
            "byteLength" : 1344,
            "byteOffset" : 192,
            "target" : 34962
        },
        {
            "buffer" : 0,
            "byteLength" : 1344,
            "byteOffset" : 1536,
            "target" : 34962
        },
        {
            "buffer" : 0,
            "byteLength" : 896,
            "byteOffset" : 2880,
            "target" : 34962
        },
        {
            "buffer" : 0,
            "byteLength" : 896,
            "byteOffset" : 3776,
            "target" : 34962
        },
        {
            "buffer" : 0,
            "byteLength" : 1792,
            "byteOffset" : 4672,
            "target" : 34962
        },
        {
            "buffer" : 0,
            "byteLength" : 192,
            "byteOffset" : 6464
        },
        {
            "buffer" : 0,
            "byteLength" : 80,
            "byteOffset" : 6656
        },
        {
            "buffer" : 0,
            "byteLength" : 320,
            "byteOffset" : 6736
        },
        {
            "buffer" : 0,
            "byteLength" : 116,
            "byteOffset" : 7056
        },
        {
            "buffer" : 0,
            "byteLength" : 464,
            "byteOffset" : 7172
        },
        {
            "buffer" : 0,
            "byteLength" : 116,
            "byteOffset" : 7636
        },
        {
            "buffer" : 0,
            "byteLength" : 464,
            "byteOffset" : 7752
        },
        {
            "buffer" : 0,
            "byteLength" : 116,
            "byteOffset" : 8216
        },
        {
            "buffer" : 0,
            "byteLength" : 464,
            "byteOffset" : 8332
        },
        {
            "buffer" : 0,
            "byteLength" : 36,
            "byteOffset" : 8796
        },
        {
            "buffer" : 0,
            "byteLength" : 108,
            "byteOffset" : 8832
        },
        {
            "buffer" : 0,
            "byteLength" : 80,
            "byteOffset" : 8940
        },
        {
            "buffer" : 0,
            "byteLength" : 320,
            "byteOffset" : 9020
        }
    ],
    "buffers" : [
        {
            "byteLength" : 9340,
            "uri" : "assistant.bin"
        }
    ],
    "images" : [
        {
            "name" : "Untitled",
            "uri" : "Untitled.png"
        }
    ],
    "materials" : [
        {
            "name" : "Material.009",
            "pbrMetallicRoughness" : {
                "baseColorTexture" : {
                    "index" : 0
                }
            }
        }
    ],
    "meshes" : [
        {
            "name" : "Plane",
            "primitives" : [
                {
                    "attributes" : {
                        "JOINTS_0" : 4,
                        "NORMAL" : 2,
                        "POSITION" : 1,
                        "TEXCOORD_0" : 3,
                        "WEIGHTS_0" : 5
                    },
                    "indices" : 0,
                    "material" : 0
                }
            ]
        }
    ],
    "nodes" : [
        {
            "children" : [
                1,
                3
            ],
            "name" : "Armature",
            "translation" : [
                0.0,
                -0.45470479130744934,
                -0.09915395826101303
            ]
        },
        {
            "mesh" : 0,
            "name" : "Plane",
            "rotation" : [
                0.6532815098762512,
                -0.27059805393218994,
                -0.27059805393218994,
                0.6532815098762512
            ],
            "scale" : [
                1.7329806089401245,
                1.732980489730835,
                1.7329806089401245
            ],
            "skin" : 0,
            "translation" : [
                0.0,
                0.45470479130744934,
                0.09915395826101303
            ]
        },
        {
            "name" : "Sun",
            "translation" : [
                -1.2408570051193237,
                11.108448028564453,
                3.2210339213634143e-06
            ]
        },
        {
            "children" : [
                4,
                5
            ],
            "name" : "Armature_Bone",
            "translation" : [
                0.02742435410618782,
                0.4115208089351654,
                0.0
            ]
        },
        {
            "name" : "Armature_Bone.001",
            "translation" : [
                -0.008038148283958435,
                0.08831870555877686,
                0.0
            ]
        },
        {
            "name" : "Armature_Bone.002",
            "translation" : [
                -0.009880200028419495,
                0.015207469463348389,
                0.0
            ]
        }
    ],
    "samplers" : [
        {}
    ],
    "scene" : 0,
    "scenes" : [
        {
            "name" : "Scene",
            "nodes" : [
                0,
                2
            ]
        }
    ],
    "skins" : [
        {
            "inverseBindMatrices" : 6,
            "joints" : [
                3,
                4,
                5
            ],
            "skeleton" : 0
        }
    ],
    "textures" : [
        {
            "sampler" : 0,
            "source" : 0
        }
    ]
}
